<?xml version="1.0" standalone="no"?> <!DOCTYPE svg PUBLIC "-//W3C//DTD SVG 1.0//EN" "http://www.w3.org/TR/2001/REC-SVG-20010904/DTD/svg10.dtd" > <svg xmlns="http://www.w3.org/2000/svg" width="100%" height="100%">
<defs >
<font horiz-adv-x="0" ><font-face
    font-family="MLB Blue Jays Modern"
    units-per-em="1000"
    panose-1="0 0 4 0 0 0 0 0 0 0"
    ascent="801"
    descent="-200"
    alphabetic="0" />
<missing-glyph horiz-adv-x="500" d="M63 0V800H438V0H63ZM125 63H375V738H125V63Z" />
<glyph unicode=" " glyph-name="space" horiz-adv-x="500" />
<glyph unicode="0" glyph-name="zero" horiz-adv-x="683" d="M378 800Q244 800 181 745Q105 681 61 498Q0 243 0 191Q0 0 238 0Q371 0 435 55Q511 119 554 302Q616 557 616 609Q616 800 378 800ZM238 148Q187 148 170 159Q158 168 158 191Q158 218 181 326Q202
427 217 481Q251 600 287 631Q311 652 378 652Q429 652 445 641Q457 632 457 609Q457 582 435 474Q414 373 398 319Q364 201 329 169Q304 148 238 148Z" />
<glyph unicode="1" glyph-name="one" horiz-adv-x="390" d="M323 734Q323 800 233 800H126L111 738Q110 736 106 711Q106 674 144 663Q143 661 142 655Q139 655 8 117Q8 117 7 112Q7 111 0 67Q0 0 80 0H195L214 74L177 83Q172 84 168 86Q167 92 177 132L323 734Z" />
<glyph unicode="2" glyph-name="two" horiz-adv-x="684" d="M315 291Q314 292 389 326Q502 377 546 417Q624 490 624 612Q624 703 574 751T429 800H225L209 735Q209 735 205 706Q205 649 276 649H390Q438 649 453 641T468 608Q468 529 406 500Q407 499 302 450Q212
409 175 382Q116 339 79 267Q36 185 8 40Q8 40 6 31L0 0H422Q460 0 480 13Q503 30 513 72V72L542 190H463L453 171Q445 155 429 152Q425 151 396 151H199Q228 250 315 291Z" />
<glyph unicode="3" glyph-name="three" horiz-adv-x="641" d="M572 635Q572 800 388 800H193L182 724Q184 725 184 726Q183 724 181 720Q181 720 178 702Q178 649 251 649H375Q416 649 416 619Q416 563 391 534Q378 520 358 516Q343 514 287 514H222L206 451Q205
449 203 420Q201 363 278 363H300Q347 363 360 355Q368 349 368 327Q368 306 357 260Q343 201 326 181T289 155Q276 151 244 151H148Q111 151 102 154Q102 154 102 156L95 181H28L4 89Q4 88 0 58Q0 0 76 0H211Q346 0 399 31Q459 66 496 178Q530 280 530 342Q530
405 494 441Q572 502 572 635Z" />
<glyph unicode="4" glyph-name="four" horiz-adv-x="668" d="M497 355Q509 376 522 416Q552 514 581 695Q580 694 587 733Q587 800 502 800H439L428 791L14 336L5 296Q5 297 0 262Q0 204 76 204H298L273 101Q273 99 268 67Q268 0 349 0H466L482 80L444 83L433
86V86L439 121Q437 119 437 119Q442 134 451 171L460 204H494Q566 204 580 262Q580 262 601 355H497ZM227 355L378 526L335 355H227Z" />
<glyph unicode="5" glyph-name="five" horiz-adv-x="634" d="M450 649Q491 649 508 657Q537 671 548 715Q548 715 561 767L569 800H263Q222 800 203 787Q180 773 170 731L87 390H285Q348 390 348 390Q387 385 387 355Q387 292 346 195Q336 172 318 163Q293 151
233 151H146Q111 151 104 155Q104 156 102 164Q102 164 96 191H30L6 99Q6 99 4 88Q4 88 0 61Q0 0 92 0H238Q333 0 391 29T483 125Q549 257 549 373Q549 483 468 520Q422 541 318 541H287L314 649H450Z" />
<glyph unicode="6" glyph-name="six" horiz-adv-x="648" d="M392 800Q233 800 151 691Q105 630 76 511L23 296Q0 205 0 170Q0 104 41 61Q100 0 237 0Q339 0 385 17Q442 38 482 104Q506 144 525 217T545 344Q545 512 341 512H239Q258 578 283 607Q322 651 400 651H475Q519
651 536 661Q558 673 566 712Q566 713 585 800H392ZM345 169Q331 149 244 149Q154 149 154 178L163 228Q163 228 167 241L199 363H315Q366 363 380 356Q390 350 390 331Q390 255 345 169Z" />
<glyph unicode="7" glyph-name="seven" horiz-adv-x="625" d="M124 800L108 733L103 702Q103 649 176 649H351Q325 623 283 560Q182 409 15 99L14 97L0 54Q0 32 17 16T67 0H201L220 71L196 79Q196 80 198 84Q198 85 518 618Q533 644 539 656Q549 676 555 699Q555
699 579 800H124Z" />
<glyph unicode="8" glyph-name="eight" horiz-adv-x="656" d="M587 639Q587 800 387 800Q244 800 184 729Q148 687 127 616Q110 561 110 522Q110 488 124 463Q63 425 28 321Q0 239 0 164Q0 56 82 21Q129 0 240 0Q389 0 449 59Q489 99 516 194Q541 278 541 346Q541
401 513 436Q587 494 587 639ZM210 347Q245 364 321 364Q366 364 380 354Q388 347 388 330Q388 291 372 241T338 175Q318 156 290 151Q272 148 226 148Q176 148 162 156Q152 161 152 177Q152 208 169 267Q188 337 210 347ZM311 646Q311 646 374 652Q415 652 427
647Q435 644 435 633Q435 611 427 576Q418 536 408 527Q390 511 332 511Q285 511 271 517Q263 521 263 531Q263 557 275 595Q291 641 311 646Z" />
<glyph unicode="9" glyph-name="nine" horiz-adv-x="681" d="M374 800Q298 800 254 786Q203 769 159 724Q120 684 93 566Q74 483 74 456Q74 343 153 304Q198 282 289 282H381V281Q354 184 327 167T174 149Q130 149 133 149Q106 151 101 165L92 187H28L6 99Q6 98
0 62Q0 0 81 0H211Q348 0 411 39Q497 93 533 243Q532 244 598 515Q615 583 615 624Q615 800 374 800ZM275 626Q296 651 366 651Q426 651 445 642Q461 635 461 614L454 580Q454 579 450 566L417 431H319Q259 431 244 438T228 470Q228 502 242 551Q257 605 275 626Z"
/>
<glyph unicode="A" glyph-name="A" horiz-adv-x="620" d="M334 306H220L258 462Q265 487 275 540H278Q283 508 294 462L334 306ZM562 0L339 800H224L0 0H145L189 175H365L409 0H562Z" />
<glyph unicode="B" glyph-name="B" horiz-adv-x="509" d="M245 582Q245 539 225 514Q207 493 181 493H141V672H181Q207 672 225 650Q245 625 245 582ZM438 246Q438 320 403 380Q372 435 332 450Q356 466 372 508Q387 547 387 589Q387 686 332 745Q279 800 200
800H0V0H221Q315 0 376 66T438 246ZM287 247Q287 192 260 160Q236 132 200 132H141V364H200Q235 364 260 334Q287 301 287 247Z" />
<glyph unicode="C" glyph-name="C" horiz-adv-x="509" d="M447 609Q397 653 324 653Q249 653 201 582T153 400Q153 288 201 219T327 149Q411 149 456 192L445 36Q396 0 304 0Q178 0 93 103Q0 215 0 400Q0 585 93 697Q179 800 304 800Q398 800 457 758L447 609Z" />
<glyph unicode="D" glyph-name="D" horiz-adv-x="588" d="M362 400Q362 278 311 210Q264 149 190 149H150V651H190Q264 651 311 590Q362 522 362 400ZM519 400Q519 588 426 698Q340 800 205 800H0V0H205Q340 0 426 102Q519 212 519 400Z" />
<glyph unicode="E" glyph-name="E" horiz-adv-x="435" d="M0 0V800H352V656H155V474H315V329H155V144H376V0H0Z" />
<glyph unicode="F" glyph-name="F" horiz-adv-x="416" d="M156 656V474H324V329H156V0H0V800H362V656H156Z" />
<glyph unicode="G" glyph-name="G" horiz-adv-x="579" d="M306 0Q179 0 93 103Q0 215 0 400Q0 585 94 697Q181 800 306 800Q416 800 478 743L468 593Q406 653 324 653Q248 653 199 582T149 396Q149 287 195 216T312 144Q354 144 378 162V297H286V428H513V75Q440 0 306 0Z" />
<glyph unicode="H" glyph-name="H" horiz-adv-x="600" d="M363 0V326H155V0H0V800H155V475H363V800H518V0H363Z" />
<glyph unicode="I" glyph-name="I" horiz-adv-x="237" d="M0 0V800H156V0H0Z" />
<glyph unicode="J" glyph-name="J" horiz-adv-x="361" d="M67 -177L0 -52Q73 -33 101 29Q123 76 123 164V800H279V148Q279 -119 67 -177Z" />
<glyph unicode="K" glyph-name="K" horiz-adv-x="559" d="M322 0L153 347V0H0V800H153V441L323 800H488L294 406L498 0H322Z" />
<glyph unicode="L" glyph-name="L" horiz-adv-x="430" d="M0 0V800H155V149H385V0H0Z" />
<glyph unicode="M" glyph-name="M" horiz-adv-x="799" d="M575 1L557 283Q551 371 552 424H550Q532 361 503 280L399 0H325L219 280Q193 347 173 424H170Q170 350 166 283L147 1H0L52 800H177L303 453Q344 342 361 278H363Q391 375 419 453L545 800H671L724 1H575Z" />
<glyph unicode="N" glyph-name="N" horiz-adv-x="628" d="M460 0L250 320Q198 398 149 484L147 483Q150 399 150 323V6H0V800H121L307 509Q367 414 396 361H399Q395 433 395 506V800H546V0H460Z" />
<glyph unicode="O" glyph-name="O" horiz-adv-x="671" d="M449 401Q449 292 405 222T301 151Q241 151 197 221T153 401Q153 509 198 581Q241 650 301 650Q361 650 404 581Q449 509 449 401ZM603 401Q603 578 513 691Q428 800 301 800Q174 800 89 691Q0 579 0 401Q0
222 89 109Q174 0 301 0Q428 0 513 109Q603 223 603 401Z" />
<glyph unicode="P" glyph-name="P" horiz-adv-x="477" d="M273 563Q273 517 252 491T201 465H150V662H201Q230 662 251 637Q273 609 273 563ZM423 563Q423 669 363 736Q305 800 220 800H0V0H150V325H220Q305 325 364 391T423 563Z" />
<glyph unicode="Q" glyph-name="Q" horiz-adv-x="674" d="M450 398Q450 290 405 217Q361 148 302 148Q242 148 199 217Q153 290 153 398Q153 507 199 579Q242 649 302 649Q361 649 405 579Q450 506 450 398ZM641 -16Q617 -26 589 -26Q544 -26 499 3Q450 35 433
39V41Q506 78 554 173Q605 273 605 398Q605 576 515 691Q429 801 302 801Q175 801 89 691Q0 577 0 398Q0 236 76 126Q147 22 257 1Q329 -44 396 -95Q467 -148 544 -148Q560 -148 567 -146L641 -16Z" />
<glyph unicode="R" glyph-name="R" horiz-adv-x="578" d="M276 563Q276 517 254 491T203 465H150V662H203Q232 662 253 637Q276 609 276 563ZM518 0L336 371Q376 396 401 447T427 563Q427 668 366 736Q308 800 224 800H0V0H150V325H195L349 0H518Z" />
<glyph unicode="S" glyph-name="S" horiz-adv-x="460" d="M175 0Q73 0 12 56L0 221Q75 145 162 145Q239 145 239 216Q239 282 153 345Q14 447 14 585Q14 679 67 739T213 800Q296 800 346 760L337 615Q289 656 229 656Q161 656 161 596Q161 544 242 484Q390 374
390 230Q390 123 335 62T175 0Z" />
<glyph unicode="T" glyph-name="T" horiz-adv-x="552" d="M326 658V0H170V660H0V800H495V658H326Z" />
<glyph unicode="U" glyph-name="U" horiz-adv-x="584" d="M253 0Q143 0 73 66Q0 136 0 250V800H152V264Q152 211 180 180T254 149Q300 149 328 180T357 263V800H506V250Q506 136 433 66Q362 0 253 0Z" />
<glyph unicode="V" glyph-name="V" horiz-adv-x="610" d="M337 0H210L0 800H157L243 466Q262 389 279 297H281Q301 409 316 466L402 800H547L337 0Z" />
<glyph unicode="W" glyph-name="W" horiz-adv-x="909" d="M649 0H544L460 340Q448 392 423 511H421Q406 425 385 340L301 0H195L0 800H148L222 479Q240 404 252 320H254Q267 407 284 479L358 800H495L569 479Q586 408 599 320H601Q613 400 631 479L706 800H845L649 0Z" />
<glyph unicode="X" glyph-name="X" horiz-adv-x="605" d="M378 0L304 172Q287 210 270 258H268Q260 236 231 172L156 0H0L184 409L9 800H173L243 642Q255 616 274 564H276Q286 595 307 642L377 800H533L360 411L542 0H378Z" />
<glyph unicode="Y" glyph-name="Y" horiz-adv-x="631" d="M366 354V0H213V350L0 800H163L250 612Q266 579 294 517H296Q309 547 339 612L426 800H577L366 354Z" />
<glyph unicode="Z" glyph-name="Z" horiz-adv-x="505" d="M0 0V41L152 449Q192 555 233 651L231 652H19V800H431V759L279 350Q262 304 200 149L201 148H441V0H0Z" />
<glyph unicode="a" glyph-name="a" horiz-adv-x="620" d="M334 306H220L258 462Q265 487 275 540H278Q283 508 294 462L334 306ZM562 0L339 800H224L0 0H145L189 175H365L409 0H562Z" />
<glyph unicode="b" glyph-name="b" horiz-adv-x="509" d="M245 582Q245 539 225 514Q207 493 181 493H141V672H181Q207 672 225 650Q245 625 245 582ZM438 246Q438 320 403 380Q372 435 332 450Q356 466 372 508Q387 547 387 589Q387 686 332 745Q279 800 200
800H0V0H221Q315 0 376 66T438 246ZM287 247Q287 192 260 160Q236 132 200 132H141V364H200Q235 364 260 334Q287 301 287 247Z" />
<glyph unicode="c" glyph-name="c" horiz-adv-x="509" d="M447 609Q397 653 324 653Q249 653 201 582T153 400Q153 288 201 219T327 149Q411 149 456 192L445 36Q396 0 304 0Q178 0 93 103Q0 215 0 400Q0 585 93 697Q179 800 304 800Q398 800 457 758L447 609Z" />
<glyph unicode="d" glyph-name="d" horiz-adv-x="588" d="M362 400Q362 278 311 210Q264 149 190 149H150V651H190Q264 651 311 590Q362 522 362 400ZM519 400Q519 588 426 698Q340 800 205 800H0V0H205Q340 0 426 102Q519 212 519 400Z" />
<glyph unicode="e" glyph-name="e" horiz-adv-x="435" d="M0 0V800H352V656H155V474H315V329H155V144H376V0H0Z" />
<glyph unicode="f" glyph-name="f" horiz-adv-x="416" d="M156 656V474H324V329H156V0H0V800H362V656H156Z" />
<glyph unicode="g" glyph-name="g" horiz-adv-x="579" d="M306 0Q179 0 93 103Q0 215 0 400Q0 585 94 697Q181 800 306 800Q416 800 478 743L468 593Q406 653 324 653Q248 653 199 582T149 396Q149 287 195 216T312 144Q354 144 378 162V297H286V428H513V75Q440 0 306 0Z" />
<glyph unicode="h" glyph-name="h" horiz-adv-x="600" d="M363 0V326H155V0H0V800H155V475H363V800H518V0H363Z" />
<glyph unicode="i" glyph-name="i" horiz-adv-x="237" d="M0 0V800H156V0H0Z" />
<glyph unicode="j" glyph-name="j" horiz-adv-x="361" d="M67 -177L0 -52Q73 -33 101 29Q123 76 123 164V800H279V148Q279 -119 67 -177Z" />
<glyph unicode="k" glyph-name="k" horiz-adv-x="559" d="M322 0L153 347V0H0V800H153V441L323 800H488L294 406L498 0H322Z" />
<glyph unicode="l" glyph-name="l" horiz-adv-x="430" d="M0 0V800H155V149H385V0H0Z" />
<glyph unicode="m" glyph-name="m" horiz-adv-x="799" d="M575 1L557 283Q551 371 552 424H550Q532 361 503 280L399 0H325L219 280Q193 347 173 424H170Q170 350 166 283L147 1H0L52 800H177L303 453Q344 342 361 278H363Q391 375 419 453L545 800H671L724 1H575Z" />
<glyph unicode="n" glyph-name="n" horiz-adv-x="628" d="M460 0L250 320Q198 398 149 484L147 483Q150 399 150 323V6H0V800H121L307 509Q367 414 396 361H399Q395 433 395 506V800H546V0H460Z" />
<glyph unicode="o" glyph-name="o" horiz-adv-x="671" d="M449 401Q449 292 405 222T301 151Q241 151 197 221T153 401Q153 509 198 581Q241 650 301 650Q361 650 404 581Q449 509 449 401ZM603 401Q603 578 513 691Q428 800 301 800Q174 800 89 691Q0 579 0 401Q0
222 89 109Q174 0 301 0Q428 0 513 109Q603 223 603 401Z" />
<glyph unicode="p" glyph-name="p" horiz-adv-x="477" d="M273 563Q273 517 252 491T201 465H150V662H201Q230 662 251 637Q273 609 273 563ZM423 563Q423 669 363 736Q305 800 220 800H0V0H150V325H220Q305 325 364 391T423 563Z" />
<glyph unicode="q" glyph-name="q" horiz-adv-x="674" d="M450 398Q450 290 405 217Q361 148 302 148Q242 148 199 217Q153 290 153 398Q153 507 199 579Q242 649 302 649Q361 649 405 579Q450 506 450 398ZM641 -16Q617 -26 589 -26Q544 -26 499 3Q450 35 433
39V41Q506 78 554 173Q605 273 605 398Q605 576 515 691Q429 801 302 801Q175 801 89 691Q0 577 0 398Q0 236 76 126Q147 22 257 1Q329 -44 396 -95Q467 -148 544 -148Q560 -148 567 -146L641 -16Z" />
<glyph unicode="r" glyph-name="r" horiz-adv-x="578" d="M276 563Q276 517 254 491T203 465H150V662H203Q232 662 253 637Q276 609 276 563ZM518 0L336 371Q376 396 401 447T427 563Q427 668 366 736Q308 800 224 800H0V0H150V325H195L349 0H518Z" />
<glyph unicode="s" glyph-name="s" horiz-adv-x="460" d="M175 0Q73 0 12 56L0 221Q75 145 162 145Q239 145 239 216Q239 282 153 345Q14 447 14 585Q14 679 67 739T213 800Q296 800 346 760L337 615Q289 656 229 656Q161 656 161 596Q161 544 242 484Q390 374
390 230Q390 123 335 62T175 0Z" />
<glyph unicode="t" glyph-name="t" horiz-adv-x="552" d="M326 658V0H170V660H0V800H495V658H326Z" />
<glyph unicode="u" glyph-name="u" horiz-adv-x="584" d="M253 0Q143 0 73 66Q0 136 0 250V800H152V264Q152 211 180 180T254 149Q300 149 328 180T357 263V800H506V250Q506 136 433 66Q362 0 253 0Z" />
<glyph unicode="v" glyph-name="v" horiz-adv-x="610" d="M337 0H210L0 800H157L243 466Q262 389 279 297H281Q301 409 316 466L402 800H547L337 0Z" />
<glyph unicode="w" glyph-name="w" horiz-adv-x="909" d="M649 0H544L460 340Q448 392 423 511H421Q406 425 385 340L301 0H195L0 800H148L222 479Q240 404 252 320H254Q267 407 284 479L358 800H495L569 479Q586 408 599 320H601Q613 400 631 479L706 800H845L649 0Z" />
<glyph unicode="x" glyph-name="x" horiz-adv-x="605" d="M378 0L304 172Q287 210 270 258H268Q260 236 231 172L156 0H0L184 409L9 800H173L243 642Q255 616 274 564H276Q286 595 307 642L377 800H533L360 411L542 0H378Z" />
<glyph unicode="y" glyph-name="y" horiz-adv-x="631" d="M366 354V0H213V350L0 800H163L250 612Q266 579 294 517H296Q309 547 339 612L426 800H577L366 354Z" />
<glyph unicode="z" glyph-name="z" horiz-adv-x="505" d="M0 0V41L152 449Q192 555 233 651L231 652H19V800H431V759L279 350Q262 304 200 149L201 148H441V0H0Z" />
</font>
</defs>
</svg>
